<?xml version="1.0" encoding="utf-8"?>
<!-- Generator: Adobe Illustrator 23.0.6, SVG Export Plug-In . SVG Version: 6.00 Build 0)  -->
<svg version="1.1" id="Capa_1" xmlns="http://www.w3.org/2000/svg" xmlns:xlink="http://www.w3.org/1999/xlink" x="0px" y="0px"
	 viewBox="0 0 882 123" style="enable-background:new 0 0 882 123;" xml:space="preserve">
<style type="text/css">
	.st0{fill:#FFFFFF;}
</style>
<g>
	<path class="st0" d="M157.2,46.4L157.2,46.4h3.3c4.5,0,7-2.8,7-7c0-4.1-2-6.9-6.6-6.9h-7.5v23.8h3.8V46.4z M157.2,35.3h2.4
		c3,0,4.1,1.6,4.1,4.1c0,3-1.8,4.1-3.8,4.1h-2.7V35.3z"/>
	<path class="st0" d="M184.3,54.2c-0.1-1.4-0.1-3.3-0.1-4.8c-0.1-3.3-1.4-4.6-3.7-4.9v-0.1c2.6-0.4,4-2.8,4-5.8c0-4.5-2.7-6.1-6-6.1
		H170v23.8h3.8V45.9h3.1c2.6,0,3.4,1.1,3.5,3.7c0.1,1.7,0,3.1,0.2,4.5c0.1,0.9,0.3,1.7,0.6,2.1h4.3C185,55.9,184.4,55.3,184.3,54.2z
		 M176.9,43h-3v-7.7h3.2c2.5,0,3.6,1.3,3.6,3.9C180.7,41.6,179.3,43,176.9,43z"/>
	<path class="st0" d="M203.1,44.3c0-8.5-2.4-12.4-7.9-12.4c-5.5,0-7.9,3.9-7.9,12.4s2.4,12.4,7.9,12.4
		C200.6,56.7,203.1,52.8,203.1,44.3z M195.2,53.8c-2.3,0-4.1-1.4-4.1-9.6c0-8,1.8-9.4,4.1-9.4c2.3,0,4.1,1.4,4.1,9.4
		C199.3,52.4,197.5,53.8,195.2,53.8z"/>
	<path class="st0" d="M213.7,56.7c5.6,0,7.3-4.2,7.3-8.5v-0.5h-3.8v0.4c0,2.2-0.4,5.7-3.5,5.7c-2.8,0-4.1-1.9-4.1-9.6
		s1.3-9.4,4.1-9.4c2.7-0.1,3.4,2.4,3.4,4.6v0.4h3.8v-0.4c0-2.5-0.4-7.5-7.2-7.5c-6,0-7.9,3.9-7.9,12.4S207.7,56.7,213.7,56.7z"/>
	<path class="st0" d="M237.9,49.2V32.5h-3.8v17c0,3-1.2,4.3-3.5,4.3c-2.3,0-3.5-1.3-3.5-4.3v-17h-3.8v16.7c0,5.5,2.7,7.5,7.3,7.5
		C235.2,56.7,237.9,54.7,237.9,49.2z"/>
	<path class="st0" d="M255.9,54.2c-0.1-1.4-0.1-3.3-0.1-4.8c-0.1-3.3-1.4-4.6-3.7-4.9v-0.1c2.6-0.4,4-2.8,4-5.8c0-4.5-2.7-6.1-6-6.1
		h-8.4v23.8h3.8V45.9h3.1c2.6,0,3.4,1.1,3.5,3.7c0.1,1.7,0,3.1,0.2,4.5c0.1,0.9,0.3,1.7,0.6,2.1h4.3
		C256.5,55.9,255.9,55.3,255.9,54.2z M248.4,43h-3v-7.7h3.2c2.5,0,3.6,1.3,3.6,3.9C252.2,41.6,250.8,43,248.4,43z"/>
	<path class="st0" d="M275,56.2l-6.3-23.8h-4.9l-6.8,23.8h4l1.5-5.8h7l1.5,5.8H275z M263.4,47.4l2.8-11.7h0.1l2.7,11.7H263.4z"/>
	<path class="st0" d="M291.8,44.3c0-7-0.9-11.9-8.4-11.9h-6.8v23.8h6.8C290.9,56.2,291.8,51.4,291.8,44.3z M280.5,35.3h3.1
		c3.3,0,4.4,2.3,4.4,9c0,7-1.3,9-4.4,9h-3.1V35.3z"/>
	<path class="st0" d="M309.5,49.2V32.5h-3.8v17c0,3-1.2,4.3-3.5,4.3c-2.3,0-3.5-1.3-3.5-4.3v-17h-3.8v16.7c0,5.5,2.7,7.5,7.3,7.5
		C306.7,56.7,309.5,54.7,309.5,49.2z"/>
	<path class="st0" d="M323.4,49.6c0.1,1.7,0,3.1,0.2,4.5c0.1,0.9,0.3,1.7,0.6,2.1h4.3c-0.5-0.3-1.1-0.9-1.1-2.1
		c-0.1-1.4-0.1-3.3-0.1-4.8c-0.1-3.3-1.4-4.6-3.7-4.9v-0.1c2.6-0.4,4-2.8,4-5.8c0-4.5-2.7-6.1-6-6.1h-8.4v23.8h3.8V45.9h3.1
		C322.6,45.9,323.4,47,323.4,49.6z M319.9,43h-3v-7.7h3.2c2.5,0,3.6,1.3,3.6,3.9C323.7,41.6,322.3,43,319.9,43z"/>
	<polygon class="st0" points="336.9,26.3 332.9,26.3 330.9,31.1 333.3,31.1 	"/>
	<rect x="330.8" y="32.5" class="st0" width="3.8" height="23.8"/>
	<path class="st0" d="M350,56.2h4l-6.3-23.8h-4.9l-6.8,23.8h4l1.5-5.8h7L350,56.2z M342.3,47.4l2.8-11.7h0.1l2.7,11.7H342.3z"/>
	<path class="st0" d="M370.6,46.6L370.6,46.6h4c0,5.2-1.1,7.3-4,7.3c-2.6,0-3.8-1.9-3.8-9.6c0-7.6,1.4-9.4,4.1-9.4
		c2.6,0,3.3,2.1,3.3,3.9v0.6h3.6v-0.4c0-2.2-1-6.9-7-6.9c-5.5,0-7.9,3.9-7.9,12.4s1.9,12.4,7.1,12.4c2.8,0,4.2-1,5.2-3.2h0.1v2.8
		h2.9V43.7h-7.6V46.6z"/>
	<polygon class="st0" points="385.3,45.4 393.8,45.4 393.8,42.3 385.3,42.3 385.3,35.7 394.3,35.7 394.3,32.5 381.5,32.5 
		381.5,56.2 394.6,56.2 394.6,53 385.3,53 	"/>
	<polygon class="st0" points="409.1,50.2 409,50.2 402.1,32.5 397.5,32.5 397.5,56.2 401.1,56.2 401.1,38 401.2,38 408,56.2 
		412.7,56.2 412.7,32.5 409.1,32.5 	"/>
	<polygon class="st0" points="420.4,45.4 428.9,45.4 428.9,42.3 420.4,42.3 420.4,35.7 429.4,35.7 429.4,32.5 416.6,32.5 
		416.6,56.2 429.7,56.2 429.7,53 420.4,53 	"/>
	<path class="st0" d="M446.9,54.2c-0.1-1.4-0.1-3.3-0.1-4.8c-0.1-3.3-1.4-4.6-3.7-4.9v-0.1c2.6-0.4,4-2.8,4-5.8c0-4.5-2.7-6.1-6-6.1
		h-8.4v23.8h3.8V45.9h3.1c2.6,0,3.4,1.1,3.5,3.7c0.1,1.7,0,3.1,0.2,4.5c0.1,0.9,0.3,1.7,0.6,2.1h4.3C447.6,55.9,447,55.3,446.9,54.2
		z M439.4,43h-3v-7.7h3.2c2.5,0,3.6,1.3,3.6,3.9C443.2,41.6,441.9,43,439.4,43z"/>
	<path class="st0" d="M455,32.5l-6.8,23.8h4l1.5-5.8h7l1.5,5.8h4l-6.3-23.8H455z M454.4,47.4l2.8-11.7h0.1l2.7,11.7H454.4z"/>
	<polygon class="st0" points="471.1,32.5 467.3,32.5 467.3,56.2 480.3,56.2 480.3,53 471.1,53 	"/>
	<path class="st0" d="M160.2,72.4h-6.8v23.8h6.8c7.5,0,8.4-4.9,8.4-11.9S167.6,72.4,160.2,72.4z M160.3,93.3h-3.1v-18h3.1
		c3.3,0,4.4,2.3,4.4,9C164.7,91.2,163.5,93.3,160.3,93.3z"/>
	<polygon class="st0" points="175.7,85.4 184.2,85.4 184.2,82.2 175.7,82.2 175.7,75.6 184.7,75.6 184.7,72.4 171.9,72.4 
		171.9,96.2 185,96.2 185,93 175.7,93 	"/>
	<path class="st0" d="M215.2,72.4L208.4,96V93h-9.2V72.4h-3.8v23.8h12.9h0h3.9l1.5-5.8h7l1.5,5.8h4L220,72.4H215.2z M214.6,87.3
		l2.8-11.7h0.1l2.7,11.7H214.6z"/>
	<path class="st0" d="M250.2,94.1c-0.1-1.4-0.1-3.3-0.1-4.8c-0.1-3.3-1.4-4.6-3.7-4.9v-0.1c2.6-0.4,4-2.8,4-5.8c0-4.5-2.7-6.1-6-6.1
		h-8.4v23.8h3.8V85.9h3.1c2.6,0,3.4,1.1,3.5,3.7c0.1,1.7,0,3.1,0.2,4.5c0.1,0.9,0.3,1.7,0.6,2.1h4.3
		C250.9,95.8,250.3,95.3,250.2,94.1z M242.8,83h-3v-7.7h3.2c2.5,0,3.6,1.3,3.6,3.9C246.6,81.5,245.2,83,242.8,83z"/>
	<polygon class="st0" points="257.6,85.4 266.1,85.4 266.1,82.2 257.6,82.2 257.6,75.6 266.7,75.6 266.7,72.4 253.8,72.4 
		253.8,96.2 266.9,96.2 266.9,93 257.6,93 	"/>
	<path class="st0" d="M277.3,72.4h-7.5v23.8h3.8v-9.8h3.3c4.5,0,7-2.8,7-7C283.9,75.3,281.9,72.4,277.3,72.4z M276.3,83.5h-2.7v-8.2
		h2.4c3,0,4.1,1.6,4.1,4.1C280.1,82.4,278.3,83.5,276.3,83.5z"/>
	<polygon class="st0" points="294.1,71.1 297.6,66.3 293.6,66.3 291.6,71.1 	"/>
	<path class="st0" d="M296.9,89.4L296.9,89.4c0,3-1.2,4.3-3.4,4.3c-2.3,0-3.5-1.3-3.5-4.3v-17h-3.8v16.7c0,5.5,2.7,7.5,7.3,7.5
		c4.5,0,7.3-2,7.3-7.5V72.4h-3.8V89.4z"/>
	<path class="st0" d="M314.9,83.6L314.9,83.6c2.4-0.8,3.5-2.6,3.5-5.5c0-4.2-2.9-5.8-6.4-5.8h-7.7v23.8h7.5c4.5,0,7.3-2.5,7.3-6.5
		C319.2,85.7,317.5,84.1,314.9,83.6z M308.1,75.3L308.1,75.3h2.7c2.1,0,3.8,0.6,3.8,3.4c0,2.2-1.2,3.8-3.5,3.8h-3V75.3z M311.9,93.3
		h-3.8v-8.2h3.5c2.2,0,3.7,1.5,3.7,4C315.4,91.8,314.1,93.3,311.9,93.3z"/>
	<polygon class="st0" points="325.6,72.4 321.8,72.4 321.8,96.2 334.7,96.2 334.7,93 325.6,93 	"/>
	<rect x="336.8" y="72.4" class="st0" width="3.8" height="23.8"/>
	<path class="st0" d="M355.2,88c0,2.2-0.4,5.7-3.5,5.7c-2.8,0-4.1-1.9-4.1-9.6s1.3-9.4,4.1-9.4c2.7-0.1,3.4,2.4,3.4,4.6v0.4h3.8
		v-0.4c0-2.5-0.4-7.5-7.2-7.5c-6,0-7.9,3.9-7.9,12.4c0,8.5,1.9,12.4,7.9,12.4c5.6,0,7.3-4.2,7.3-8.5v-0.5h-3.8V88z"/>
	<path class="st0" d="M366.1,72.4l-6.8,23.8h4l1.5-5.8h7l1.5,5.8h4L371,72.4H366.1z M365.6,87.3l2.8-11.7h0.1l2.7,11.7H365.6z"/>
	<path class="st0" d="M102.6,1.3c-7.5,0-14.4,3.1-19.3,8l-7.4,7.4l7.4,7.4l7.4-7.4c3-3,7.3-4.9,11.9-4.9c9.3,0,16.9,7.5,16.9,16.9
		c0,4.7-1.9,8.9-4.9,11.9L76.7,78.4l2.2,2.2l5.2,5.2l18.7-18.7L121.9,48c4.9-4.9,8-11.8,8-19.3C129.9,13.6,117.7,1.3,102.6,1.3z"/>
	<path class="st0" d="M114.4,67.7l-1.5,1.5L107,75l7.1,7.1l0.3,0.3c3,3,4.9,7.3,4.9,11.9c0,9.3-7.5,16.9-16.9,16.9
		c-3.9,0-7.5-1.4-10.4-3.6L45.9,61.4l15.6-15.6l-7.4-7.4L38.4,54.2L25,40.8l-0.6-0.6l0,0c-2.9-3-4.6-7.1-4.6-11.6
		c0-9.3,7.5-16.9,16.9-16.9c4.5,0,8.6,1.7,11.6,4.6l-0.1,0.1l1.9,1.9L63.8,32l23.1,23.1l7.5-7.5L56,9.2l-0.3-0.3
		c-4.9-4.8-11.6-7.7-19-7.7C21.6,1.2,9.3,13.4,9.3,28.5c0,7.4,2.9,14.1,7.7,19l-0.1,0.1l14,14L17.4,75.1l-2.1,2.1l0.1,0.1
		c-3.8,4.7-6,10.6-6,17.1c0,15.1,12.2,27.3,27.3,27.3c7.2,0,13.8-2.8,18.6-7.4l0,0l9.3-9.3l-7.4-7.4l-8.6,8.6c-3,3-7.3,4.9-11.9,4.9
		c-9.3,0-16.9-7.5-16.9-16.9c0-4.5,1.8-8.6,4.6-11.6l0.6-0.6l13.2-13.2l46.3,46c4.8,4.1,11,6.6,17.8,6.6c15.1,0,27.3-12.2,27.3-27.3
		c0-7.5-3-14.4-8-19.3L114.4,67.7z"/>
	<path class="st0" d="M704.1,38.1c-0.6-4.4-1-9.1-1.8-13.7c-1.2,2.6-2.4,5-3.6,7.6c-1.2,2.6-2.4,5.2-3.4,7.8c-1.2,2.4-2,5-3.6,7.8
		c-1.8-4.2-3.4-7.8-5-11.7s-3.2-7.6-4.8-11.5c-0.2,0-0.2,0-0.4,0c-1.2,9.1-2.4,18.3-3.6,27.6c0.8,0,1.6,0,2.6,0
		c0.2-2.2,0.4-4.4,0.6-6.4c0.2-2.2,0.4-4.4,0.6-6.6c0.4-2,0-4.2,0.6-6.2c0.2,0,0.2,0,0.4,0c3,6.8,5.8,13.5,8.9,20.3
		c0.2,0,0.2,0,0.4,0c1.4-3.4,3-6.8,4.6-10.3c1.6-3.4,2.8-6.8,4.6-10.1c1.2,6.4,1.4,12.9,2.2,19.5c0.8,0,1.6,0,2.6,0
		C705.1,47.4,704.7,42.8,704.1,38.1z"/>
	<path class="st0" d="M856.8,53c1-0.2,2-0.2,3.2-0.4c8.1-1.8,14.1-10.9,9.3-20.3c-4.4-9.3-16.7-9.7-22.5-4.2c-4.4,4-6,10.5-3.6,16.1
		C845.3,49.8,851,53.2,856.8,53z M856,26.9c7,0,12.3,5,12.3,12.3c0,6.4-5.2,11.5-12.3,11.5c-5.6,0.4-11.5-5.2-11.5-11.9
		C844.5,31.5,850.4,26.9,856,26.9z"/>
	<path class="st0" d="M722.2,47.8c0-1.4,0-2.8,0-4c0-1.4,0-2.8,0-4.2c0-1.4,0-2.8,0-4c0-1.4-0.2-2.6,0.2-4.4
		c0.6,0.6,0.8,0.8,1.2,1.2c5.6,6.6,11.3,13.3,16.7,19.9c0.2,0.2,0.6,0.4,0.8,0.6c0-9.3,0-18.3,0-27.6c-0.8,0-1.6,0-2.2,0
		c0,7,0,13.9-0.2,20.7c-6.4-7-12.3-14.5-18.5-21.5c0,0-0.2,0-0.2,0.2c0,9.1,0,18.3,0,27.6c0.8,0,1.6,0,2.2-0.2
		C722.2,50.6,722.2,49.2,722.2,47.8z"/>
	<path class="st0" d="M822.8,39.1c3.6-1,5.2-3,5.2-6.6c0-3.6-1.4-6.2-5.4-7c-2.6-0.4-5.2-0.4-7.8-0.4c-0.2,0-0.2,0.2-0.4,0.2
		c0,8.9,0,17.7,0,26.6c0.8,0,1.6,0,2.4,0c0-0.8,0-1.4,0-2.2c0-3,0-6.2,0-9.3c0-0.4,0.2-1,0.4-1c0.4,0,1,0.2,1.4,0.4
		c0.2,0,0.4,0.4,0.4,0.6c2.6,3.4,5.2,7,7.8,10.5c1,1.2,2,1.4,3.8,0.8c-3-4-6-8.1-9.3-12.3C822,39.5,822.4,39.3,822.8,39.1z
		 M816.8,37.1c-0.2-3.2-0.2-6.4,0-9.7c1.8-0.2,3.6-0.2,5.2,0.2c1.6,0.4,2.8,1.6,3,3.2c0.2,1.2,0.2,2.4-0.2,3.6
		c-0.4,1.4-1.2,2.2-2.6,2.4C820.6,37.3,818.8,37.3,816.8,37.1z"/>
	<path class="st0" d="M808.1,49.8c-3.6,0-7,0-10.7,0c0-3.8,0-7.6,0-11.5c3.6,0,7,0,10.7,0c0-0.8,0-1.4,0-2.2
		c-3.6-0.2-7.2,0.2-10.7-0.2c0-2.8-0.2-5.4,0.2-8.3c3.6,0,7,0,10.7,0c0-0.8,0-1.6,0-2.2c-1.6-0.4-11.9-0.4-13.3,0
		c0,8.9,0,17.9,0,26.8c4.4,0,8.9,0,13.3,0C808.1,51.2,808.1,50.6,808.1,49.8z"/>
	<path class="st0" d="M770.5,47.2c0.8-3.8-0.4-7-3.6-8.9c-1.6-1-3.2-1.8-4.8-2.8c-0.8-0.4-1.4-1-2-1.6c-1.4-1.4-1.4-3.2-0.6-4.8
		c0.6-1.6,2-2.2,3.6-2.2c1.8,0,3.2,0.6,4.4,2.2c0.4-0.2,0.8-0.4,1.2-0.6c0.8-0.6,1-0.8,0.2-1.6c-2.6-3-8-3.2-10.9-0.2
		c-2.4,2.4-2.2,7.2,0.2,9.1c1,0.8,2.2,1.6,3.4,2.4c1.2,0.8,2.4,1.2,3.6,2c0.8,0.6,1.6,1.2,2.2,2c1.8,2.4,1,6.2-1.4,7.8
		c-2.6,1.6-6.4,0.6-8-2c-0.2-0.4-0.4-0.8-0.8-1.4c-0.8,0.4-1.4,0.8-2,1.2c1.6,3,3.6,5,7.2,5.2C766.5,53,769.5,51.2,770.5,47.2z"/>
	<path class="st0" d="M790.6,25.3c-2.4-0.4-15.7-0.4-17.1,0c0,0.6,0,1.2,0,2c2.4,0.2,4.8,0,7.2,0.2c0,1,0,2,0,3c0,6.4,0,12.9,0,19.5
		c0,0.6,0,1.4,0.2,2c0.8,0,1.4,0,2.4,0c0-8.3,0-16.3,0-24.4c2.4-0.4,4.8,0,7.2-0.2C790.6,26.7,790.6,26.1,790.6,25.3z"/>
	<path class="st0" d="M750.4,25.3c-0.8,0-1.6,0-2.2,0c0,9.1,0,17.9,0,27c0.8,0,1.6,0,2.2,0C750.4,43.2,750.4,34.3,750.4,25.3z"/>
	<path class="st0" d="M713.1,52c0-9.1,0-17.9,0-26.8c-0.8,0-1.4,0-2.4,0c0,9.1,0,18.1,0.2,27C711.9,52.2,712.5,52,713.1,52z"/>
	<path class="st0" d="M834.3,52.2c0.8,0,1.6,0,2.2,0c0-9.1,0-17.9,0-27c-0.8,0-1.4,0-2.2,0C834.3,34.3,834.3,43.2,834.3,52.2z"/>
	<path class="st0" d="M789.7,97.5c1.6,0,3.2,0,4.4,0c0-10.5,0-20.8,0-31.3c-1.6,0-2.8,0-4.4,0C789.7,76.7,789.7,87,789.7,97.5z"/>
	<path class="st0" d="M854,65.5c-8.9,0-16.5,7.2-16.5,16.3c0,9.9,7.8,16.3,16.5,16.3c9.5,0,16.7-7.8,16.3-16.3
		C870.5,72.9,863.1,65.5,854,65.5z M854.2,93.5c-6.6,0.2-11.7-4.8-11.7-11.7c-0.2-6.4,5-11.7,10.9-11.9c6.8-0.2,12.1,4.8,12.3,11.5
		C865.7,88.2,860.6,93.5,854.2,93.5z"/>
	<path class="st0" d="M753.2,81.4c-0.4-0.2-0.8-0.6-1.2-0.8c0.2-0.4,0.4-0.6,0.6-1c3.4-4.4,1-11.5-4.4-12.9
		c-2.8-0.8-5.8-0.6-8.7-0.6c-0.4,0-0.6,0-1,0.2c0,10.5,0,20.7,0,31.2c3.8,0,7.4,0.2,11.1-0.4c3.2-0.4,5.4-2.4,6.8-5.2
		C758,88.2,756.6,83.2,753.2,81.4z M743.3,70.7c0,0,2,0,2.4,0c4,0.4,4.6,4.4,3.2,7c-1.1,1.3-1.9,1.8-5.6,1.8
		C743.3,79.2,743.3,70.7,743.3,70.7z M749.3,92.5c-1.8,0.6-3.8,0.4-6,0.4c0-3,0-6,0-9.1c2.4-0.2,4.8-0.4,6.8,0.8
		c1.6,0.8,2.2,2.4,2.2,4C752.2,90.5,751.2,91.9,749.3,92.5z"/>
	<path class="st0" d="M722,66.3c0,0.6,0,1.2,0,1.8c0,4.8,0,9.5,0,14.3c0,1.6,0,3.2-0.2,4.8c-0.2,2.8-1.2,5-4,6.2
		c-3.2,1.2-8.5,0.2-9.1-4.8c-0.2-1.4-0.4-2.6-0.4-4c0-5.4,0-10.9,0-16.5c0-0.6,0-1,0-1.6c-1.6,0-3.2,0-4.6,0c0,0.8,0,1.6,0,2.4
		c0,5.6,0,11.5,0,17.1c0,2.6,0.4,5,1.8,7.2c2.8,4.2,7.8,6.2,13.1,4.8c2.8-0.8,5-2.2,6.4-4.6c1.4-2,2-4.2,2-6.6c0-6.4,0-12.7,0-19.1
		c0-0.4,0-0.6-0.2-1.2C725,66.3,723.6,66.3,722,66.3z"/>
	<path class="st0" d="M828.2,67.3c-5.6-2.6-11.1-2.4-16.3,1c-10.3,6.8-9.9,21.9,0.8,27.8c5,2.8,10.3,2.6,15.5,0.2
		c0.4-0.2,0.8-0.6,0.8-0.8c0-1.6,0-3.2,0-5.2c-2.8,2.4-5.8,3.6-9.3,3.4c-3.6-0.2-6.2-2-8.5-4.6c-3-3.8-3-10.1,0.2-14.1
		c1.6-2,3.6-3.4,6-4.2c4.2-1.2,7.8,0.2,11.7,3c0-1.8,0-3.2,0-4.6C829.2,68.1,828.8,67.7,828.2,67.3z"/>
	<path class="st0" d="M686.6,66.5c-2.8-0.2-5.4-0.2-8.3-0.4c-0.4,0-0.8,0-1.4,0.2c0,10.5,0,20.9,0,31.2c1.6,0,3,0,4.6,0
		c0-4.2,0-8.3,0-12.5c0.8,0,1.2-0.2,1.8-0.2c1,0,2-0.2,3.2-0.2c3.8-0.6,7.2-3.2,7.6-7.6C695,71.3,691.6,66.9,686.6,66.5z
		 M687.6,79.6c-1.4,0.8-3.8,1-5.6,0.6c0-0.4-0.2-0.8-0.2-1.2c0-2.2,0-4.6,0-6.8c0-1.4,0.4-1.6,1.6-1.4c1.2,0,2.2,0.2,3.4,0.6
		c2,0.6,3,1.8,3.2,3.6C690,76.8,689.6,78.6,687.6,79.6z"/>
	<polygon class="st0" points="771.7,66.1 767.1,66.1 767.1,97.5 780.7,97.5 780.7,92.7 771.7,92.7 	"/>
	<path class="st0" d="M713.1,62.7c0.6,0.6,1,0.6,1.8,0.2c2-1.4,4-2.6,6-4c0.4-0.2,0.8-0.6,1.4-1c-1.4-1-2.6-2-3.8-2.8
		c-2.2,2.2-4.4,4.4-6.6,6.6C712.3,61.9,712.7,62.3,713.1,62.7z"/>
	<path class="st0" d="M631,1.8c-7.5,0-14.2,3-19.2,8l-7.5,7.5l7.5,7.5l7.5-7.5c3-3,7.2-5,12-5c9.2,0,16.7,7.5,16.7,16.7
		c0,4.7-2,8.7-5,12l-37.9,37.6l2.2,2.2l5.2,5.2l18.7-18.7l18.9-18.9c5-5,8-11.7,8-19.2C658.2,14,646,1.8,631,1.8z"/>
	<path class="st0" d="M642.7,67.6l-1.5,1.5l-6,6l7,7l0.2,0.2c3,3,5,7.2,5,12c0,9.2-7.5,16.7-16.7,16.7c-4,0-7.5-1.2-10.5-3.5
		l-45.9-45.9l15.5-15.5l-7.5-7.5l-15.7,15.7l-13.5-13.5l-0.2-0.5c-2.7-3-4.5-7-4.5-11.5c0-9.2,7.5-16.7,16.7-16.7
		c4.5,0,8.5,1.7,11.5,4.5l2,2l13.7,13.7l22.9,22.9l7.5-7.5L584.4,9.5l-0.2-0.2c-5-4.7-11.5-7.7-18.9-7.7c-15,0-27.2,12.2-27.2,27.2
		c0,7.2,3,14,7.7,18.9l14,14l-13.5,13.5l-2,2c-3.7,4.7-6,10.5-6,17c0,15,12.2,27.2,27.2,27.2c7.2,0,13.7-2.7,18.7-7.2l9.2-9.2
		l-7.5-7.5l-8.7,8.7c-3,3-7.2,5-12,5c-9.2,0-16.7-7.5-16.7-16.7c0-4.5,1.7-8.5,4.5-11.5l0.7-0.7l13.2-13.2l46.1,45.9
		c4.7,4.2,11,6.7,17.7,6.7c15,0,27.2-12.2,27.2-27.2c0.2-7.2-3-14.2-7.7-19.2L642.7,67.6z"/>
	<rect x="508.7" y="7.2" class="st0" width="1" height="108.7"/>
</g>
</svg>
